<svg width="309" height="76" viewBox="0 0 309 76" fill="none" xmlns="http://www.w3.org/2000/svg">
<path d="M203.4 52V29.6H217.256V31.808H206.088V39.616H216.296V41.792H206.088V49.792H217.256V52H203.4ZM225.27 52L219.158 35.872H221.974L226.838 49.408L231.734 35.872H234.486L228.374 52H225.27ZM243.06 52.384C241.546 52.384 240.202 52.032 239.028 51.328C237.876 50.624 236.97 49.6427 236.308 48.384C235.647 47.104 235.316 45.6213 235.316 43.936C235.316 42.2293 235.636 40.7467 236.276 39.488C236.938 38.2293 237.855 37.248 239.028 36.544C240.223 35.84 241.588 35.488 243.124 35.488C244.703 35.488 246.036 35.84 247.124 36.544C248.234 37.248 249.076 38.176 249.652 39.328C250.25 40.4587 250.548 41.7067 250.548 43.072C250.548 43.2853 250.548 43.5093 250.548 43.744C250.548 43.9787 250.538 44.2453 250.516 44.544H237.332V42.464H247.924C247.86 40.992 247.37 39.84 246.452 39.008C245.556 38.176 244.426 37.76 243.06 37.76C242.143 37.76 241.29 37.9733 240.5 38.4C239.732 38.8053 239.114 39.4133 238.644 40.224C238.175 41.0133 237.94 42.0053 237.94 43.2V44.096C237.94 45.4187 238.175 46.528 238.644 47.424C239.135 48.32 239.764 48.992 240.532 49.44C241.322 49.888 242.164 50.112 243.06 50.112C244.191 50.112 245.119 49.8667 245.844 49.376C246.591 48.864 247.124 48.1813 247.444 47.328H250.1C249.844 48.288 249.396 49.152 248.756 49.92C248.116 50.688 247.316 51.296 246.356 51.744C245.418 52.1707 244.319 52.384 243.06 52.384ZM253.472 52V35.872H255.904L256.032 38.688C256.544 37.6853 257.269 36.9067 258.208 36.352C259.168 35.776 260.256 35.488 261.472 35.488C262.73 35.488 263.818 35.744 264.736 36.256C265.653 36.7467 266.368 37.504 266.88 38.528C267.392 39.5307 267.648 40.8107 267.648 42.368V52H264.96V42.656C264.96 41.0347 264.597 39.8187 263.872 39.008C263.168 38.1973 262.165 37.792 260.864 37.792C259.968 37.792 259.168 38.016 258.464 38.464C257.76 38.8907 257.194 39.52 256.768 40.352C256.362 41.1627 256.16 42.176 256.16 43.392V52H253.472ZM277.479 52C276.519 52 275.687 51.8507 274.983 51.552C274.279 51.2533 273.735 50.752 273.351 50.048C272.988 49.3227 272.807 48.352 272.807 47.136V38.144H269.991V35.872H272.807L273.159 31.968H275.495V35.872H280.167V38.144H275.495V47.136C275.495 48.1387 275.697 48.8213 276.103 49.184C276.508 49.5253 277.223 49.696 278.247 49.696H279.975V52H277.479ZM289.05 52.384C287.706 52.384 286.533 52.16 285.53 51.712C284.549 51.264 283.759 50.6453 283.162 49.856C282.586 49.0453 282.234 48.096 282.106 47.008H284.858C284.965 47.5627 285.189 48.0747 285.53 48.544C285.871 49.0133 286.33 49.3973 286.906 49.696C287.503 49.9733 288.229 50.112 289.082 50.112C289.829 50.112 290.447 50.0053 290.938 49.792C291.429 49.5573 291.791 49.248 292.026 48.864C292.282 48.48 292.41 48.064 292.41 47.616C292.41 46.9547 292.25 46.4533 291.93 46.112C291.631 45.7707 291.183 45.504 290.586 45.312C289.989 45.0987 289.263 44.9173 288.41 44.768C287.706 44.64 287.013 44.4693 286.33 44.256C285.647 44.0427 285.039 43.7653 284.506 43.424C283.973 43.0613 283.546 42.624 283.226 42.112C282.927 41.6 282.778 40.9707 282.778 40.224C282.778 39.3067 283.013 38.496 283.482 37.792C283.951 37.0667 284.623 36.5013 285.498 36.096C286.394 35.6907 287.429 35.488 288.602 35.488C290.33 35.488 291.727 35.904 292.794 36.736C293.861 37.568 294.49 38.7733 294.682 40.352H292.026C291.919 39.5413 291.567 38.912 290.97 38.464C290.394 37.9947 289.594 37.76 288.57 37.76C287.567 37.76 286.799 37.9627 286.266 38.368C285.754 38.7733 285.498 39.3067 285.498 39.968C285.498 40.3947 285.637 40.7787 285.914 41.12C286.213 41.44 286.639 41.7173 287.194 41.952C287.77 42.1867 288.474 42.3787 289.306 42.528C290.373 42.72 291.343 42.976 292.218 43.296C293.093 43.616 293.797 44.096 294.33 44.736C294.885 45.3547 295.162 46.24 295.162 47.392C295.162 48.3947 294.906 49.2693 294.394 50.016C293.903 50.7627 293.199 51.3493 292.282 51.776C291.365 52.1813 290.287 52.384 289.05 52.384Z" fill="#171717"/>
<path d="M14.016 58.576C11.072 58.576 8.736 58.048 7.008 56.992C5.312 55.904 4.112 54.4 3.408 52.48C2.704 50.528 2.352 48.24 2.352 45.616V31.6C2.352 28.912 2.704 26.608 3.408 24.688C4.112 22.736 5.312 21.232 7.008 20.176C8.736 19.12 11.072 18.592 14.016 18.592C16.896 18.592 19.136 19.072 20.736 20.032C22.368 20.96 23.52 22.272 24.192 23.968C24.864 25.664 25.2 27.616 25.2 29.824V33.184H16.8V29.296C16.8 28.528 16.752 27.792 16.656 27.088C16.592 26.384 16.368 25.808 15.984 25.36C15.6 24.88 14.944 24.64 14.016 24.64C13.12 24.64 12.448 24.88 12 25.36C11.584 25.84 11.312 26.448 11.184 27.184C11.088 27.888 11.04 28.64 11.04 29.44V47.728C11.04 48.592 11.104 49.392 11.232 50.128C11.392 50.832 11.68 51.408 12.096 51.856C12.544 52.272 13.184 52.48 14.016 52.48C14.912 52.48 15.552 52.256 15.936 51.808C16.32 51.328 16.56 50.72 16.656 49.984C16.752 49.248 16.8 48.496 16.8 47.728V43.648H25.2V47.008C25.2 49.216 24.864 51.2 24.192 52.96C23.552 54.688 22.416 56.064 20.784 57.088C19.184 58.08 16.928 58.576 14.016 58.576ZM28.8709 58V19.12H41.9269C44.2629 19.12 46.1829 19.568 47.6869 20.464C49.1909 21.328 50.3109 22.608 51.0469 24.304C51.7829 25.968 52.1509 28 52.1509 30.4C52.1509 33.408 51.6549 35.712 50.6629 37.312C49.6709 38.88 48.3269 39.968 46.6309 40.576C44.9349 41.184 43.0309 41.488 40.9189 41.488H37.4629V58H28.8709ZM37.4629 35.488H40.3429C41.3989 35.488 42.1989 35.296 42.7429 34.912C43.2869 34.528 43.6389 33.952 43.7989 33.184C43.9909 32.416 44.0869 31.44 44.0869 30.256C44.0869 29.264 44.0069 28.4 43.8469 27.664C43.7189 26.896 43.3829 26.288 42.8389 25.84C42.2949 25.392 41.4469 25.168 40.2949 25.168H37.4629V35.488ZM55.3808 58V19.12H63.9728V34.864H70.0208V19.12H78.6128V58H70.0208V41.008H63.9728V58H55.3808ZM83.4776 58V19.12H100.278V24.928H92.0696V34.72H99.2216V40.72H92.0696V58H83.4776ZM106.354 58L101.65 19.12H108.946L111.25 41.776L114.178 19.168H119.89L122.962 41.632L125.314 19.12H132.514L127.858 58H120.37L117.058 34.528L113.938 58H106.354Z" fill="#171717"/>
<path d="M176.721 40.5381C177.107 40.9335 177.099 41.5666 176.703 41.9522L170.261 48.2365C169.866 48.6222 169.232 48.6143 168.847 48.219C168.461 47.8236 168.469 47.1905 168.864 46.8049L174.591 41.2188L169.005 35.492C168.619 35.0967 168.627 34.4636 169.023 34.0779C169.418 33.6923 170.051 33.7002 170.437 34.0955L176.721 40.5381ZM157 41L157.012 40.0001L176.018 40.2365L176.005 41.2364L175.993 42.2363L156.988 41.9999L157 41Z" fill="#171717"/>
</svg>
