<svg width="311" height="76" viewBox="0 0 311 76" fill="none" xmlns="http://www.w3.org/2000/svg">
<g clip-path="url(#clip0_123_234)">
<path d="M213.032 52.384C210.941 52.384 209.107 51.904 207.528 50.944C205.949 49.9627 204.723 48.608 203.848 46.88C202.973 45.152 202.536 43.136 202.536 40.832C202.536 38.5493 202.973 36.5333 203.848 34.784C204.744 33.0347 206.003 31.6693 207.624 30.688C209.267 29.7067 211.197 29.216 213.416 29.216C215.933 29.216 218.035 29.824 219.72 31.04C221.405 32.2347 222.483 33.9093 222.952 36.064H219.848C219.549 34.72 218.845 33.6533 217.736 32.864C216.627 32.0747 215.187 31.68 213.416 31.68C211.773 31.68 210.333 32.0533 209.096 32.8C207.88 33.5253 206.941 34.5707 206.28 35.936C205.619 37.3013 205.288 38.9333 205.288 40.832C205.288 42.7307 205.619 44.3733 206.28 45.76C206.941 47.1253 207.859 48.1707 209.032 48.896C210.227 49.6213 211.592 49.984 213.128 49.984C215.517 49.984 217.32 49.28 218.536 47.872C219.752 46.464 220.445 44.5547 220.616 42.144H214.152V40.032H223.368V52H220.904L220.68 48.32C220.147 49.1947 219.528 49.9413 218.824 50.56C218.141 51.1573 217.331 51.616 216.392 51.936C215.453 52.2347 214.333 52.384 213.032 52.384ZM232.034 52.384C230.733 52.384 229.645 52.16 228.77 51.712C227.895 51.2427 227.245 50.6347 226.818 49.888C226.391 49.12 226.178 48.288 226.178 47.392C226.178 46.304 226.455 45.3867 227.01 44.64C227.586 43.872 228.386 43.296 229.41 42.912C230.455 42.5067 231.682 42.304 233.09 42.304H237.346C237.346 41.3013 237.186 40.4693 236.866 39.808C236.567 39.1253 236.119 38.6133 235.522 38.272C234.946 37.9307 234.221 37.76 233.346 37.76C232.322 37.76 231.437 38.016 230.69 38.528C229.943 39.04 229.485 39.7973 229.314 40.8H226.562C226.69 39.648 227.074 38.688 227.714 37.92C228.375 37.1307 229.207 36.5333 230.21 36.128C231.213 35.7013 232.258 35.488 233.346 35.488C234.839 35.488 236.077 35.7653 237.058 36.32C238.061 36.8533 238.807 37.6107 239.298 38.592C239.789 39.552 240.034 40.6933 240.034 42.016V52H237.634L237.474 49.152C237.261 49.6 236.983 50.0267 236.642 50.432C236.322 50.816 235.938 51.1573 235.49 51.456C235.042 51.7333 234.53 51.9573 233.954 52.128C233.399 52.2987 232.759 52.384 232.034 52.384ZM232.45 50.112C233.197 50.112 233.869 49.9627 234.466 49.664C235.085 49.344 235.607 48.9173 236.034 48.384C236.461 47.8293 236.781 47.2213 236.994 46.56C237.229 45.8987 237.346 45.2053 237.346 44.48V44.384H233.314C232.269 44.384 231.426 44.512 230.786 44.768C230.146 45.0027 229.687 45.344 229.41 45.792C229.133 46.2187 228.994 46.7093 228.994 47.264C228.994 47.84 229.122 48.3413 229.378 48.768C229.655 49.1947 230.05 49.5253 230.562 49.76C231.095 49.9947 231.725 50.112 232.45 50.112ZM243.488 52V28.96H246.176V52H243.488ZM249.909 52V28.96H252.597V52H249.909ZM263.402 52.384C261.888 52.384 260.544 52.032 259.37 51.328C258.218 50.624 257.312 49.6427 256.65 48.384C255.989 47.104 255.658 45.6213 255.658 43.936C255.658 42.2293 255.978 40.7467 256.618 39.488C257.28 38.2293 258.197 37.248 259.37 36.544C260.565 35.84 261.93 35.488 263.466 35.488C265.045 35.488 266.378 35.84 267.466 36.544C268.576 37.248 269.418 38.176 269.994 39.328C270.592 40.4587 270.89 41.7067 270.89 43.072C270.89 43.2853 270.89 43.5093 270.89 43.744C270.89 43.9787 270.88 44.2453 270.858 44.544H257.674V42.464H268.266C268.202 40.992 267.712 39.84 266.794 39.008C265.898 38.176 264.768 37.76 263.402 37.76C262.485 37.76 261.632 37.9733 260.842 38.4C260.074 38.8053 259.456 39.4133 258.986 40.224C258.517 41.0133 258.282 42.0053 258.282 43.2V44.096C258.282 45.4187 258.517 46.528 258.986 47.424C259.477 48.32 260.106 48.992 260.874 49.44C261.664 49.888 262.506 50.112 263.402 50.112C264.533 50.112 265.461 49.8667 266.186 49.376C266.933 48.864 267.466 48.1813 267.786 47.328H270.442C270.186 48.288 269.738 49.152 269.098 49.92C268.458 50.688 267.658 51.296 266.698 51.744C265.76 52.1707 264.661 52.384 263.402 52.384ZM273.814 52V35.872H276.246L276.438 38.944C276.8 38.2187 277.259 37.6 277.814 37.088C278.39 36.576 279.072 36.1813 279.862 35.904C280.672 35.6267 281.59 35.488 282.614 35.488V38.304H281.622C280.939 38.304 280.288 38.4 279.67 38.592C279.051 38.7627 278.496 39.0507 278.006 39.456C277.536 39.8613 277.163 40.416 276.886 41.12C276.63 41.8027 276.502 42.656 276.502 43.68V52H273.814ZM286.714 59.04L290.65 50.208H289.722L283.386 35.872H286.298L291.546 48.192L297.05 35.872H299.834L289.53 59.04H286.714Z" fill="#171717"/>
<path d="M14.016 58.576C11.072 58.576 8.736 58.048 7.008 56.992C5.312 55.904 4.112 54.4 3.408 52.48C2.704 50.528 2.352 48.24 2.352 45.616V31.6C2.352 28.912 2.704 26.608 3.408 24.688C4.112 22.736 5.312 21.232 7.008 20.176C8.736 19.12 11.072 18.592 14.016 18.592C16.896 18.592 19.136 19.072 20.736 20.032C22.368 20.96 23.52 22.272 24.192 23.968C24.864 25.664 25.2 27.616 25.2 29.824V33.184H16.8V29.296C16.8 28.528 16.752 27.792 16.656 27.088C16.592 26.384 16.368 25.808 15.984 25.36C15.6 24.88 14.944 24.64 14.016 24.64C13.12 24.64 12.448 24.88 12 25.36C11.584 25.84 11.312 26.448 11.184 27.184C11.088 27.888 11.04 28.64 11.04 29.44V47.728C11.04 48.592 11.104 49.392 11.232 50.128C11.392 50.832 11.68 51.408 12.096 51.856C12.544 52.272 13.184 52.48 14.016 52.48C14.912 52.48 15.552 52.256 15.936 51.808C16.32 51.328 16.56 50.72 16.656 49.984C16.752 49.248 16.8 48.496 16.8 47.728V43.648H25.2V47.008C25.2 49.216 24.864 51.2 24.192 52.96C23.552 54.688 22.416 56.064 20.784 57.088C19.184 58.08 16.928 58.576 14.016 58.576ZM28.8709 58V19.12H41.9269C44.2629 19.12 46.1829 19.568 47.6869 20.464C49.1909 21.328 50.3109 22.608 51.0469 24.304C51.7829 25.968 52.1509 28 52.1509 30.4C52.1509 33.408 51.6549 35.712 50.6629 37.312C49.6709 38.88 48.3269 39.968 46.6309 40.576C44.9349 41.184 43.0309 41.488 40.9189 41.488H37.4629V58H28.8709ZM37.4629 35.488H40.3429C41.3989 35.488 42.1989 35.296 42.7429 34.912C43.2869 34.528 43.6389 33.952 43.7989 33.184C43.9909 32.416 44.0869 31.44 44.0869 30.256C44.0869 29.264 44.0069 28.4 43.8469 27.664C43.7189 26.896 43.3829 26.288 42.8389 25.84C42.2949 25.392 41.4469 25.168 40.2949 25.168H37.4629V35.488ZM55.3808 58V19.12H63.9728V34.864H70.0208V19.12H78.6128V58H70.0208V41.008H63.9728V58H55.3808ZM83.4776 58V19.12H100.278V24.928H92.0696V34.72H99.2216V40.72H92.0696V58H83.4776ZM106.354 58L101.65 19.12H108.946L111.25 41.776L114.178 19.168H119.89L122.962 41.632L125.314 19.12H132.514L127.858 58H120.37L117.058 34.528L113.938 58H106.354Z" fill="#171717"/>
<path d="M176.721 40.5381C177.107 40.9335 177.099 41.5666 176.703 41.9522L170.261 48.2365C169.866 48.6222 169.232 48.6143 168.847 48.219C168.461 47.8236 168.469 47.1905 168.864 46.8049L174.591 41.2188L169.005 35.492C168.619 35.0967 168.627 34.4636 169.023 34.0779C169.418 33.6923 170.051 33.7002 170.437 34.0955L176.721 40.5381ZM157 41L157.012 40.0001L176.018 40.2365L176.005 41.2364L175.993 42.2363L156.988 41.9999L157 41Z" fill="#171717"/>
</g>
<defs>
<clipPath id="clip0_123_234">
<rect width="311" height="76" fill="white"/>
</clipPath>
</defs>
</svg>
