<svg width="1166" height="425" viewBox="0 0 1166 425" fill="none" xmlns="http://www.w3.org/2000/svg">
<path d="M163.801 317.217C139.441 317.217 118.034 311.68 99.5788 300.605C81.3701 289.531 67.2215 274.15 57.1329 254.462C47.0443 234.528 42 211.271 42 184.693C42 158.36 47.1673 135.104 57.502 114.923C67.8367 94.4972 82.6005 78.6238 101.793 67.3032C121.232 55.7365 144.239 49.9532 170.814 49.9532C200.834 49.9532 225.686 57.2131 245.371 71.733C265.303 86.0067 278.221 105.941 284.126 131.535H234.299C230.608 118.738 223.349 108.771 212.522 101.634C201.695 94.4972 187.67 90.9287 170.445 90.9287C152.975 90.9287 137.965 94.7433 125.415 102.372C113.112 109.755 103.639 120.584 96.9952 134.857C90.5975 148.885 87.3987 165.62 87.3987 185.062C87.3987 204.504 90.5975 221.238 96.9952 235.266C103.639 249.294 112.989 259.999 125.046 267.382C137.104 274.519 151.252 278.087 167.492 278.087C191.607 278.087 209.815 271.32 222.118 257.784C234.422 244.249 241.68 226.652 243.895 204.996H177.089V171.403H288.556V312.787H247.955L244.264 277.349C238.605 285.716 232.084 292.976 224.702 299.129C217.32 305.035 208.585 309.588 198.496 312.787C188.654 315.74 177.089 317.217 163.801 317.217Z" fill="#171717"/>
<path d="M371.034 317.217C355.778 317.217 343.106 314.633 333.017 309.465C322.928 304.297 315.424 297.406 310.502 288.793C305.581 280.179 303.12 270.827 303.12 260.737C303.12 248.924 306.073 238.711 311.979 230.098C318.13 221.484 327.112 214.84 338.923 210.164C350.734 205.242 365.251 202.781 382.476 202.781H429.351C429.351 192.937 427.998 184.816 425.291 178.417C422.584 171.772 418.401 166.85 412.742 163.651C407.082 160.452 399.823 158.852 390.965 158.852C380.876 158.852 372.264 161.19 365.128 165.866C357.992 170.296 353.563 177.187 351.841 186.538H308.288C309.764 173.249 314.193 161.928 321.575 152.577C328.957 142.979 338.677 135.596 350.734 130.428C363.037 125.013 376.447 122.306 390.965 122.306C408.435 122.306 423.322 125.383 435.625 131.535C447.929 137.441 457.279 146.055 463.677 157.376C470.32 168.45 473.642 181.862 473.642 197.613V312.787H435.995L431.565 282.886C429.105 287.808 425.906 292.361 421.969 296.545C418.278 300.728 413.972 304.42 409.051 307.619C404.129 310.572 398.47 312.91 392.072 314.633C385.921 316.356 378.908 317.217 371.034 317.217ZM380.999 282.148C388.135 282.148 394.41 280.917 399.823 278.456C405.483 275.749 410.281 272.058 414.218 267.382C418.401 262.46 421.6 257.046 423.814 251.139C426.029 245.233 427.505 238.957 428.244 232.313V231.574H387.274C378.662 231.574 371.526 232.682 365.867 234.897C360.207 236.866 356.147 239.819 353.686 243.756C351.226 247.694 349.995 252.247 349.995 257.415C349.995 262.583 351.226 267.013 353.686 270.704C356.147 274.396 359.715 277.226 364.39 279.195C369.065 281.163 374.602 282.148 380.999 282.148Z" fill="#171717"/>
<path d="M495.131 312.787V47H539.422V312.787H495.131Z" fill="#171717"/>
<path d="M563.009 312.787V47H607.301V312.787H563.009Z" fill="#171717"/>
<path d="M717.995 317.217C699.54 317.217 683.3 313.279 669.274 305.404C655.249 297.283 644.299 285.962 636.425 271.443C628.551 256.923 624.614 240.188 624.614 221.238C624.614 201.55 628.428 184.323 636.056 169.557C643.93 154.791 654.879 143.225 668.905 134.857C683.177 126.49 699.663 122.306 718.364 122.306C736.573 122.306 752.444 126.367 765.977 134.488C779.511 142.61 789.968 153.561 797.35 167.343C804.732 180.878 808.423 196.136 808.423 213.117C808.423 215.578 808.423 218.285 808.423 221.238C808.423 224.191 808.177 227.268 807.685 230.467H656.356V202.043H763.763C763.27 188.507 758.718 177.925 750.106 170.296C741.494 162.421 730.79 158.483 717.995 158.483C708.89 158.483 700.524 160.575 692.896 164.759C685.268 168.942 679.24 175.218 674.811 183.585C670.381 191.706 668.167 202.043 668.167 214.594V225.299C668.167 236.866 670.258 246.833 674.442 255.2C678.871 263.567 684.776 269.966 692.158 274.396C699.786 278.579 708.275 280.671 717.626 280.671C727.96 280.671 736.45 278.456 743.093 274.027C749.983 269.597 755.027 263.69 758.226 256.307H803.256C799.811 267.874 794.151 278.333 786.277 287.685C778.403 296.791 768.684 304.051 757.119 309.465C745.554 314.633 732.512 317.217 717.995 317.217Z" fill="#171717"/>
<path d="M823.481 312.787V126.736H862.974L867.034 161.436C871.463 153.315 877 146.424 883.643 140.764C890.287 134.857 898.038 130.305 906.896 127.105C916.001 123.906 925.966 122.306 936.793 122.306V169.188H921.291C913.909 169.188 906.896 170.173 900.253 172.141C893.609 173.864 887.827 176.817 882.905 181.001C878.23 184.939 874.539 190.476 871.832 197.613C869.126 204.504 867.772 213.24 867.772 223.822V312.787H823.481Z" fill="#171717"/>
<path d="M966.86 394L1012.26 292.115H1001.19L926.998 126.736H975.349L1030.71 252.985L1083.12 126.736H1130L1013.74 394H966.86Z" fill="#171717"/>
<path d="M975.153 126.77L988.129 168.588L949.201 170.03L916.04 168.588C916.04 162.82 926.998 123.598 936.225 122.445C945.452 121.291 966.022 124.848 975.153 126.77Z" fill="#171717"/>
</svg>
