<svg width="1024" height="983" viewBox="0 0 1024 983" fill="none" xmlns="http://www.w3.org/2000/svg">
<g clip-path="url(#clip0_119_211)">
<path d="M577 52.0185L585.137 28.1795H589.138L597.141 52.0185H594.174L587.171 30.6656H587.071L579.935 52.0185H577ZM580.935 44.9009L581.735 42.5851H592.306L593.106 44.9009H580.935Z" fill="#171717"/>
<path d="M601.665 52.0185L595.529 28.1795H598.43L603.699 49.5665H603.799L609.834 28.1795H612.769L618.871 49.6006H618.971L624.207 28.1795H627.108L620.872 52.0185H616.837L611.302 32.9814H611.202L605.699 52.0185H601.665Z" fill="#171717"/>
<path d="M627.723 52.0185V50.0093C629.301 48.7378 630.79 47.4551 632.191 46.161C633.614 44.8668 634.87 43.5841 635.959 42.3127C637.071 41.0185 637.938 39.7585 638.56 38.5325C639.205 37.3065 639.527 36.1259 639.527 34.9907C639.527 34.1506 639.383 33.3787 639.094 32.6749C638.805 31.9484 638.349 31.3581 637.727 30.904C637.126 30.4499 636.282 30.2229 635.192 30.2229C634.17 30.2229 633.314 30.4613 632.625 30.9381C631.935 31.3921 631.424 32.0051 631.091 32.7771C630.757 33.5263 630.59 34.355 630.59 35.2631H627.889C627.912 33.6966 628.234 32.357 628.856 31.2446C629.501 30.1094 630.368 29.2466 631.457 28.6563C632.569 28.066 633.825 27.7709 635.226 27.7709C636.626 27.7709 637.86 28.0433 638.927 28.5882C639.994 29.1104 640.828 29.8937 641.428 30.9381C642.028 31.9824 642.328 33.2992 642.328 34.8885C642.328 36.001 642.106 37.1135 641.662 38.226C641.217 39.3385 640.617 40.4282 639.861 41.4953C639.105 42.5397 638.271 43.55 637.36 44.5263C636.448 45.5025 635.515 46.4221 634.559 47.2848C633.603 48.1475 632.702 48.9308 631.858 49.6346H643.129V52.0185H627.723Z" fill="#171717"/>
<path d="M654.545 52.4272C652.855 52.4272 651.432 52.1094 650.276 51.4737C649.12 50.8152 648.187 49.9411 647.475 48.8514C646.786 47.7616 646.275 46.5469 645.941 45.2074C645.63 43.8452 645.474 42.4602 645.474 41.0526C645.474 38.419 645.83 36.1145 646.542 34.1393C647.253 32.1414 648.287 30.5861 649.643 29.4737C650.999 28.3385 652.622 27.7709 654.511 27.7709C655.979 27.7709 657.235 28.066 658.28 28.6563C659.347 29.2466 660.18 30.0412 660.781 31.0402C661.403 32.0165 661.781 33.1063 661.914 34.3096H659.313C659.091 33.0154 658.557 32.0165 657.713 31.3127C656.868 30.6088 655.79 30.2569 654.478 30.2569C653.322 30.2569 652.277 30.6315 651.343 31.3808C650.41 32.1073 649.654 33.2311 649.076 34.7523C648.52 36.2507 648.209 38.1692 648.142 40.5077C648.142 40.5304 648.142 40.5645 648.142 40.6099C648.142 40.6326 648.142 40.6666 648.142 40.712C648.498 40.0082 648.998 39.3612 649.643 38.7709C650.288 38.1579 651.054 37.6697 651.944 37.3065C652.833 36.9432 653.822 36.7616 654.912 36.7616C656.245 36.7616 657.49 37.0794 658.646 37.7151C659.825 38.3508 660.781 39.2476 661.514 40.4055C662.248 41.5407 662.615 42.8803 662.615 44.4241C662.615 45.7636 662.292 47.0464 661.648 48.2724C661.003 49.4984 660.069 50.4974 658.846 51.2693C657.646 52.0412 656.212 52.4272 654.545 52.4272ZM654.345 49.9071C655.39 49.9071 656.323 49.6801 657.146 49.226C657.968 48.7492 658.613 48.1135 659.08 47.3189C659.547 46.5015 659.78 45.582 659.78 44.5603C659.78 43.4933 659.547 42.5624 659.08 41.7678C658.613 40.9731 657.968 40.3601 657.146 39.9288C656.323 39.4747 655.39 39.2476 654.345 39.2476C653.322 39.2476 652.388 39.4974 651.544 39.9969C650.721 40.4737 650.065 41.1207 649.576 41.9381C649.109 42.7327 648.876 43.6181 648.876 44.5944C648.876 45.6161 649.109 46.5242 649.576 47.3189C650.065 48.1135 650.721 48.7492 651.544 49.226C652.388 49.6801 653.322 49.9071 654.345 49.9071Z" fill="#171717"/>
<path d="M671.909 55.2538L680.279 26H683.047L674.677 55.2538H671.909Z" fill="#171717"/>
<path d="M692.397 52.0185V50.0093C693.975 48.7378 695.465 47.4551 696.865 46.161C698.288 44.8668 699.544 43.5841 700.633 42.3127C701.745 41.0185 702.612 39.7585 703.235 38.5325C703.879 37.3065 704.202 36.1259 704.202 34.9907C704.202 34.1506 704.057 33.3787 703.768 32.6749C703.479 31.9484 703.023 31.3581 702.401 30.904C701.801 30.4499 700.956 30.2229 699.867 30.2229C698.844 30.2229 697.988 30.4613 697.299 30.9381C696.61 31.3921 696.098 32.0051 695.765 32.7771C695.431 33.5263 695.265 34.355 695.265 35.2631H692.564C692.586 33.6966 692.908 32.357 693.531 31.2446C694.175 30.1094 695.042 29.2466 696.132 28.6563C697.243 28.066 698.499 27.7709 699.9 27.7709C701.3 27.7709 702.534 28.0433 703.601 28.5882C704.668 29.1104 705.502 29.8937 706.102 30.9381C706.703 31.9824 707.003 33.2992 707.003 34.8885C707.003 36.001 706.78 37.1135 706.336 38.226C705.891 39.3385 705.291 40.4282 704.535 41.4953C703.779 42.5397 702.946 43.55 702.034 44.5263C701.123 45.5025 700.189 46.4221 699.233 47.2848C698.277 48.1475 697.377 48.9308 696.532 49.6346H707.803V52.0185H692.397Z" fill="#171717"/>
<path d="M713.053 52.0185L722.323 30.6315H709.518V28.1795H725.191V30.325L716.021 52.0185H713.053Z" fill="#171717"/>
<path d="M735.871 43.3343V40.9164H753.344V43.3343H735.871Z" fill="#171717"/>
<path d="M772.439 52.4272C770.949 52.4272 769.593 52.1548 768.37 51.6099C767.17 51.0423 766.214 50.2022 765.503 49.0898C764.791 47.9773 764.413 46.5923 764.369 44.935H767.203C767.226 45.8431 767.437 46.6831 767.837 47.4551C768.259 48.2043 768.86 48.806 769.638 49.26C770.416 49.7141 771.349 49.9411 772.439 49.9411C773.528 49.9411 774.44 49.7255 775.173 49.2941C775.907 48.8627 776.463 48.2951 776.84 47.5913C777.218 46.8648 777.407 46.0588 777.407 45.1733C777.407 44.0609 777.141 43.1527 776.607 42.4489C776.096 41.7451 775.395 41.2229 774.506 40.8823C773.639 40.5418 772.683 40.3715 771.638 40.3715H769.904V37.9535H771.638C773.15 37.9535 774.328 37.6016 775.173 36.8978C776.04 36.1713 776.474 35.1837 776.474 33.935C776.474 32.8679 776.129 31.9938 775.44 31.3127C774.773 30.6088 773.773 30.2569 772.439 30.2569C771.149 30.2569 770.116 30.6429 769.337 31.4148C768.582 32.1868 768.148 33.1744 768.037 34.3777H765.203C765.269 33.0836 765.603 31.937 766.203 30.9381C766.825 29.9391 767.659 29.1672 768.704 28.6223C769.771 28.0547 771.016 27.7709 772.439 27.7709C773.95 27.7709 775.206 28.0433 776.207 28.5882C777.23 29.1331 777.997 29.8596 778.508 30.7678C779.041 31.6759 779.308 32.6749 779.308 33.7647C779.308 34.5593 779.164 35.3199 778.875 36.0464C778.586 36.7502 778.152 37.3746 777.574 37.9195C777.018 38.4417 776.307 38.8163 775.44 39.0433C776.351 39.2249 777.163 39.5882 777.874 40.1331C778.608 40.6553 779.186 41.3478 779.608 42.2105C780.031 43.0505 780.242 44.0382 780.242 45.1733C780.242 46.4675 779.942 47.6708 779.341 48.7833C778.763 49.873 777.896 50.7585 776.74 51.4396C775.584 52.098 774.151 52.4272 772.439 52.4272Z" fill="#171717"/>
<path d="M792.902 52.4272C790.834 52.4272 789.044 51.9164 787.533 50.8947C786.043 49.8503 784.898 48.4086 784.098 46.5696C783.298 44.7079 782.898 42.5511 782.898 40.099C782.898 37.647 783.298 35.5015 784.098 33.6625C784.898 31.8008 786.043 30.3591 787.533 29.3374C789.044 28.2931 790.834 27.7709 792.902 27.7709C794.991 27.7709 796.77 28.2931 798.237 29.3374C799.727 30.3591 800.871 31.8008 801.672 33.6625C802.472 35.5015 802.872 37.647 802.872 40.099C802.872 42.5511 802.472 44.7079 801.672 46.5696C800.871 48.4086 799.727 49.8503 798.237 50.8947C796.77 51.9164 794.991 52.4272 792.902 52.4272ZM792.902 49.9071C794.28 49.9071 795.503 49.5211 796.57 48.7492C797.637 47.9546 798.47 46.8307 799.071 45.3777C799.693 43.9019 800.004 42.1424 800.004 40.099C800.004 38.0557 799.693 36.3075 799.071 34.8545C798.47 33.3787 797.637 32.2549 796.57 31.4829C795.503 30.711 794.28 30.325 792.902 30.325C791.523 30.325 790.289 30.711 789.2 31.4829C788.133 32.2549 787.288 33.3787 786.666 34.8545C786.066 36.3075 785.765 38.0557 785.765 40.099C785.765 42.1424 786.066 43.9019 786.666 45.3777C787.288 46.8307 788.133 47.9546 789.2 48.7492C790.289 49.5211 791.523 49.9071 792.902 49.9071Z" fill="#171717"/>
<path d="M818.833 52.4272C817.432 52.4272 816.221 52.1548 815.198 51.6099C814.198 51.065 813.42 50.2817 812.864 49.26C812.33 48.2384 812.063 47.0237 812.063 45.6161H814.898C814.898 46.4107 815.02 47.1372 815.265 47.7956C815.531 48.4313 815.943 48.9422 816.499 49.3281C817.077 49.6914 817.843 49.873 818.799 49.873C819.733 49.873 820.467 49.6914 821 49.3281C821.556 48.9649 821.945 48.4767 822.167 47.8637C822.412 47.228 822.534 46.5129 822.534 45.7182V28.1795H825.335V45.7182C825.335 47.8524 824.757 49.5098 823.601 50.6904C822.468 51.8483 820.878 52.4272 818.833 52.4272Z" fill="#171717"/>
<path d="M834.228 52.4272C832.894 52.4272 831.772 52.1888 830.86 51.712C829.971 51.2353 829.304 50.5996 828.859 49.8049C828.437 49.0103 828.226 48.1475 828.226 47.2167C828.226 46.0588 828.515 45.0825 829.093 44.2879C829.693 43.4933 830.527 42.8916 831.594 42.4829C832.683 42.0516 833.961 41.8359 835.429 41.8359H839.897C839.897 40.7461 839.73 39.8379 839.397 39.1114C839.064 38.3849 838.586 37.8514 837.963 37.5108C837.341 37.1475 836.596 36.9659 835.729 36.9659C834.64 36.9659 833.695 37.2497 832.894 37.8173C832.094 38.3849 831.605 39.2476 831.427 40.4055H828.559C828.693 39.1795 829.093 38.1465 829.76 37.3065C830.427 36.4664 831.272 35.8307 832.294 35.3994C833.339 34.9453 834.484 34.7182 835.729 34.7182C837.307 34.7182 838.608 35.0134 839.63 35.6037C840.675 36.1713 841.442 36.9773 841.931 38.0216C842.443 39.0433 842.698 40.2466 842.698 41.6315V52.0185H840.331L840.097 49.0898H839.997C839.708 49.6119 839.364 50.0774 838.963 50.486C838.563 50.8947 838.119 51.2466 837.63 51.5418C837.163 51.8142 836.64 52.0299 836.062 52.1888C835.484 52.3478 834.873 52.4272 834.228 52.4272ZM834.695 50.0093C835.54 50.0093 836.274 49.8503 836.896 49.5325C837.541 49.1919 838.085 48.7378 838.53 48.1702C838.975 47.6027 839.308 46.9669 839.53 46.2631C839.775 45.5366 839.897 44.7987 839.897 44.0495H835.662C834.573 44.0495 833.695 44.1857 833.028 44.4582C832.361 44.7079 831.883 45.0598 831.594 45.5139C831.305 45.968 831.16 46.4902 831.16 47.0805C831.16 47.6708 831.294 48.193 831.561 48.647C831.85 49.0784 832.261 49.419 832.794 49.6687C833.328 49.8957 833.961 50.0093 834.695 50.0093Z" fill="#171717"/>
<path d="M845.625 52.0185V35.1269H848.126L848.359 37.8854H848.459C849.037 36.9092 849.793 36.1372 850.727 35.5696C851.683 35.002 852.817 34.7182 854.128 34.7182C855.396 34.7182 856.507 34.9907 857.463 35.5356C858.419 36.0578 859.153 36.8751 859.664 37.9876C860.197 39.0774 860.464 40.4623 860.464 42.1424V52.0185H857.663V42.4489C857.663 40.7007 857.296 39.3839 856.563 38.4984C855.829 37.613 854.773 37.1702 853.395 37.1702C852.439 37.1702 851.583 37.4086 850.827 37.8854C850.093 38.3622 849.504 39.0547 849.06 39.9628C848.637 40.8483 848.426 41.9494 848.426 43.2662V52.0185H845.625Z" fill="#171717"/>
<path d="M869.541 52.4272C868.274 52.4272 867.163 52.1661 866.207 51.6439C865.273 51.099 864.539 50.2817 864.006 49.1919C863.472 48.0794 863.205 46.6831 863.205 45.0031V35.1269H866.007V44.6966C866.007 46.4448 866.373 47.7616 867.107 48.647C867.841 49.5325 868.885 49.9752 870.242 49.9752C871.198 49.9752 872.053 49.7368 872.809 49.26C873.565 48.7833 874.154 48.0908 874.577 47.1826C875.021 46.2745 875.244 45.1733 875.244 43.8792V35.1269H878.045V52.0185H875.544L875.31 49.26H875.21C874.654 50.2136 873.899 50.9855 872.943 51.5758C871.987 52.1434 870.853 52.4272 869.541 52.4272Z" fill="#171717"/>
<path d="M886.788 52.4272C885.454 52.4272 884.332 52.1888 883.42 51.712C882.531 51.2353 881.864 50.5996 881.42 49.8049C880.997 49.0103 880.786 48.1475 880.786 47.2167C880.786 46.0588 881.075 45.0825 881.653 44.2879C882.253 43.4933 883.087 42.8916 884.154 42.4829C885.243 42.0516 886.522 41.8359 887.989 41.8359H892.457C892.457 40.7461 892.291 39.8379 891.957 39.1114C891.624 38.3849 891.146 37.8514 890.523 37.5108C889.901 37.1475 889.156 36.9659 888.289 36.9659C887.2 36.9659 886.255 37.2497 885.454 37.8173C884.654 38.3849 884.165 39.2476 883.987 40.4055H881.119C881.253 39.1795 881.653 38.1465 882.32 37.3065C882.987 36.4664 883.832 35.8307 884.854 35.3994C885.899 34.9453 887.044 34.7182 888.289 34.7182C889.867 34.7182 891.168 35.0134 892.19 35.6037C893.235 36.1713 894.002 36.9773 894.491 38.0216C895.003 39.0433 895.258 40.2466 895.258 41.6315V52.0185H892.891L892.657 49.0898H892.557C892.268 49.6119 891.924 50.0774 891.524 50.486C891.123 50.8947 890.679 51.2466 890.19 51.5418C889.723 51.8142 889.2 52.0299 888.622 52.1888C888.044 52.3478 887.433 52.4272 886.788 52.4272ZM887.255 50.0093C888.1 50.0093 888.834 49.8503 889.456 49.5325C890.101 49.1919 890.645 48.7378 891.09 48.1702C891.535 47.6027 891.868 46.9669 892.09 46.2631C892.335 45.5366 892.457 44.7987 892.457 44.0495H888.222C887.133 44.0495 886.255 44.1857 885.588 44.4582C884.921 44.7079 884.443 45.0598 884.154 45.5139C883.865 45.968 883.72 46.4902 883.72 47.0805C883.72 47.6708 883.854 48.193 884.121 48.647C884.41 49.0784 884.821 49.419 885.354 49.6687C885.888 49.8957 886.522 50.0093 887.255 50.0093Z" fill="#171717"/>
<path d="M898.185 52.0185V35.1269H900.686L900.953 38.7028H901.053C901.542 37.5903 902.053 36.7502 902.587 36.1826C903.143 35.615 903.787 35.2291 904.521 35.0247C905.255 34.8204 906.133 34.7182 907.155 34.7182V37.7151H906.422C905.577 37.7151 904.81 37.8287 904.121 38.0557C903.454 38.2827 902.887 38.6233 902.42 39.0774C901.953 39.5087 901.598 40.0877 901.353 40.8142C901.108 41.518 900.986 42.3581 900.986 43.3343V52.0185H898.185Z" fill="#171717"/>
<path d="M911.463 59L915.431 50.1114H914.431L907.795 35.1269H910.829L916.365 48.034H916.465L922.1 35.1269H925.001L914.397 59H911.463Z" fill="#171717"/>
<path d="M933.672 52.0185V50.0093C935.25 48.7378 936.739 47.4551 938.14 46.161C939.563 44.8668 940.819 43.5841 941.908 42.3127C943.02 41.0185 943.887 39.7585 944.509 38.5325C945.154 37.3065 945.476 36.1259 945.476 34.9907C945.476 34.1506 945.332 33.3787 945.043 32.6749C944.754 31.9484 944.298 31.3581 943.676 30.904C943.075 30.4499 942.231 30.2229 941.141 30.2229C940.119 30.2229 939.263 30.4613 938.574 30.9381C937.884 31.3921 937.373 32.0051 937.04 32.7771C936.706 33.5263 936.539 34.355 936.539 35.2631H933.838C933.861 33.6966 934.183 32.357 934.805 31.2446C935.45 30.1094 936.317 29.2466 937.406 28.6563C938.518 28.066 939.774 27.7709 941.175 27.7709C942.575 27.7709 943.809 28.0433 944.876 28.5882C945.943 29.1104 946.777 29.8937 947.377 30.9381C947.977 31.9824 948.277 33.2992 948.277 34.8885C948.277 36.001 948.055 37.1135 947.611 38.226C947.166 39.3385 946.566 40.4282 945.81 41.4953C945.054 42.5397 944.22 43.55 943.309 44.5263C942.397 45.5025 941.464 46.4221 940.508 47.2848C939.552 48.1475 938.651 48.9308 937.807 49.6346H949.078V52.0185H933.672Z" fill="#171717"/>
<path d="M961.035 52.4272C958.968 52.4272 957.178 51.9164 955.666 50.8947C954.177 49.8503 953.032 48.4086 952.232 46.5696C951.431 44.7079 951.031 42.5511 951.031 40.099C951.031 37.647 951.431 35.5015 952.232 33.6625C953.032 31.8008 954.177 30.3591 955.666 29.3374C957.178 28.2931 958.968 27.7709 961.035 27.7709C963.125 27.7709 964.903 28.2931 966.371 29.3374C967.86 30.3591 969.005 31.8008 969.805 33.6625C970.606 35.5015 971.006 37.647 971.006 40.099C971.006 42.5511 970.606 44.7079 969.805 46.5696C969.005 48.4086 967.86 49.8503 966.371 50.8947C964.903 51.9164 963.125 52.4272 961.035 52.4272ZM961.035 49.9071C962.413 49.9071 963.636 49.5211 964.703 48.7492C965.77 47.9546 966.604 46.8307 967.204 45.3777C967.827 43.9019 968.138 42.1424 968.138 40.099C968.138 38.0557 967.827 36.3075 967.204 34.8545C966.604 33.3787 965.77 32.2549 964.703 31.4829C963.636 30.711 962.413 30.325 961.035 30.325C959.657 30.325 958.423 30.711 957.334 31.4829C956.267 32.2549 955.422 33.3787 954.799 34.8545C954.199 36.3075 953.899 38.0557 953.899 40.099C953.899 42.1424 954.199 43.9019 954.799 45.3777C955.422 46.8307 956.267 47.9546 957.334 48.7492C958.423 49.5211 959.657 49.9071 961.035 49.9071Z" fill="#171717"/>
<path d="M973.108 52.0185V50.0093C974.686 48.7378 976.176 47.4551 977.576 46.161C978.999 44.8668 980.255 43.5841 981.345 42.3127C982.456 41.0185 983.323 39.7585 983.946 38.5325C984.59 37.3065 984.913 36.1259 984.913 34.9907C984.913 34.1506 984.768 33.3787 984.479 32.6749C984.19 31.9484 983.734 31.3581 983.112 30.904C982.512 30.4499 981.667 30.2229 980.578 30.2229C979.555 30.2229 978.699 30.4613 978.01 30.9381C977.321 31.3921 976.809 32.0051 976.476 32.7771C976.142 33.5263 975.976 34.355 975.976 35.2631H973.275C973.297 33.6966 973.619 32.357 974.242 31.2446C974.886 30.1094 975.753 29.2466 976.843 28.6563C977.954 28.066 979.21 27.7709 980.611 27.7709C982.011 27.7709 983.245 28.0433 984.312 28.5882C985.379 29.1104 986.213 29.8937 986.813 30.9381C987.414 31.9824 987.714 33.2992 987.714 34.8885C987.714 36.001 987.491 37.1135 987.047 38.226C986.602 39.3385 986.002 40.4282 985.246 41.4953C984.49 42.5397 983.657 43.55 982.745 44.5263C981.834 45.5025 980.9 46.4221 979.944 47.2848C978.988 48.1475 978.088 48.9308 977.243 49.6346H988.514V52.0185H973.108Z" fill="#171717"/>
<path d="M999.93 52.4272C998.241 52.4272 996.818 52.1094 995.662 51.4737C994.506 50.8152 993.572 49.9411 992.861 48.8514C992.171 47.7616 991.66 46.5469 991.327 45.2074C991.015 43.8452 990.86 42.4602 990.86 41.0526C990.86 38.419 991.216 36.1145 991.927 34.1393C992.638 32.1414 993.672 30.5861 995.028 29.4737C996.384 28.3385 998.007 27.7709 999.897 27.7709C1001.36 27.7709 1002.62 28.066 1003.66 28.6563C1004.73 29.2466 1005.57 30.0412 1006.17 31.0402C1006.79 32.0165 1007.17 33.1063 1007.3 34.3096H1004.7C1004.48 33.0154 1003.94 32.0165 1003.1 31.3127C1002.25 30.6088 1001.18 30.2569 999.863 30.2569C998.707 30.2569 997.663 30.6315 996.729 31.3808C995.795 32.1073 995.039 33.2311 994.461 34.7523C993.905 36.2507 993.594 38.1692 993.528 40.5077C993.528 40.5304 993.528 40.5645 993.528 40.6099C993.528 40.6326 993.528 40.6666 993.528 40.712C993.883 40.0082 994.383 39.3612 995.028 38.7709C995.673 38.1579 996.44 37.6697 997.329 37.3065C998.218 36.9432 999.208 36.7616 1000.3 36.7616C1001.63 36.7616 1002.88 37.0794 1004.03 37.7151C1005.21 38.3508 1006.17 39.2476 1006.9 40.4055C1007.63 41.5407 1008 42.8803 1008 44.4241C1008 45.7636 1007.68 47.0464 1007.03 48.2724C1006.39 49.4984 1005.45 50.4974 1004.23 51.2693C1003.03 52.0412 1001.6 52.4272 999.93 52.4272ZM999.73 49.9071C1000.77 49.9071 1001.71 49.6801 1002.53 49.226C1003.35 48.7492 1004 48.1135 1004.47 47.3189C1004.93 46.5015 1005.17 45.582 1005.17 44.5603C1005.17 43.4933 1004.93 42.5624 1004.47 41.7678C1004 40.9731 1003.35 40.3601 1002.53 39.9288C1001.71 39.4747 1000.77 39.2476 999.73 39.2476C998.707 39.2476 997.774 39.4974 996.929 39.9969C996.106 40.4737 995.451 41.1207 994.961 41.9381C994.495 42.7327 994.261 43.6181 994.261 44.5944C994.261 45.6161 994.495 46.5242 994.961 47.3189C995.451 48.1135 996.106 48.7492 996.929 49.226C997.774 49.6801 998.707 49.9071 999.73 49.9071Z" fill="#171717"/>
<path d="M358.409 514C327.513 514 302.998 508.454 284.863 497.361C267.064 485.933 254.471 470.134 247.082 449.966C239.694 429.462 236 405.429 236 377.866V230.639C236 202.403 239.694 178.202 247.082 158.034C254.471 137.529 267.064 121.731 284.863 110.639C302.998 99.5462 327.513 94 358.409 94C388.634 94 412.141 99.042 428.933 109.126C446.06 118.874 458.15 132.655 465.202 150.471C472.255 168.286 475.781 188.79 475.781 211.983V247.277H387.626V206.437C387.626 198.37 387.122 190.639 386.115 183.244C385.443 175.849 383.092 169.798 379.062 165.092C375.033 160.05 368.148 157.529 358.409 157.529C349.006 157.529 341.954 160.05 337.252 165.092C332.886 170.134 330.032 176.521 328.688 184.252C327.681 191.647 327.177 199.546 327.177 207.95V400.05C327.177 409.126 327.849 417.529 329.192 425.26C330.871 432.655 333.894 438.706 338.259 443.412C342.961 447.781 349.678 449.966 358.409 449.966C367.812 449.966 374.529 447.613 378.559 442.908C382.589 437.866 385.107 431.479 386.115 423.748C387.122 416.017 387.626 408.118 387.626 400.05V357.193H475.781V392.487C475.781 415.681 472.255 436.521 465.202 455.008C458.486 473.16 446.564 487.613 429.437 498.37C412.645 508.79 388.969 514 358.409 514Z" fill="#171717"/>
<path d="M514.305 507.95V99.5462H651.323C675.838 99.5462 695.988 104.252 711.772 113.664C727.555 122.739 739.309 136.185 747.033 154C754.757 171.479 758.62 192.824 758.62 218.034C758.62 249.63 753.414 273.832 743.004 290.639C732.593 307.109 718.488 318.538 700.689 324.924C682.89 331.311 662.909 334.504 640.744 334.504H604.475V507.95H514.305ZM604.475 271.479H634.699C645.781 271.479 654.177 269.462 659.886 265.429C665.595 261.395 669.289 255.345 670.969 247.277C672.984 239.21 673.991 228.958 673.991 216.521C673.991 206.101 673.151 197.025 671.472 189.294C670.129 181.227 666.603 174.84 660.894 170.134C655.185 165.429 646.285 163.076 634.195 163.076H604.475V271.479Z" fill="#171717"/>
<path d="M792.516 507.95V99.5462H882.685V264.924H946.157V99.5462H1036.33V507.95H946.157V329.462H882.685V507.95H792.516Z" fill="#171717"/>
<path d="M1087.38 507.95V99.5462H1263.69V160.555H1177.55V263.412H1252.61V326.437H1177.55V507.95H1087.38Z" fill="#171717"/>
<path d="M1327.46 507.95L1278.09 99.5462H1354.66L1378.84 337.529L1409.57 100.05H1469.52L1501.76 336.017L1526.44 99.5462H1602L1553.14 507.95H1474.55L1439.8 261.395L1407.05 507.95H1327.46Z" fill="#171717"/>
<path d="M530 957.403V549H706.309V610.008H620.17V712.866H695.227V775.891H620.17V957.403H530Z" fill="#171717"/>
<path d="M770.08 957.403L720.713 549H797.282L821.461 786.983L852.19 549.504H912.135L944.374 785.471L969.057 549H1044.62L995.756 957.403H917.172L882.414 710.849L849.671 957.403H770.08Z" fill="#171717"/>
</g>
<defs>
<clipPath id="clip0_119_211">
<rect width="1024" height="983" fill="white"/>
</clipPath>
</defs>
</svg>
